<?xml version="1.0" encoding="utf-8"?>
<!-- Generator: Adobe Illustrator 26.2.1, SVG Export Plug-In . SVG Version: 6.00 Build 0)  -->
<svg version="1.1" id="Layer_1" xmlns="http://www.w3.org/2000/svg" xmlns:xlink="http://www.w3.org/1999/xlink" x="0px" y="0px"
	 viewBox="0 0 1000 1000" style="enable-background:new 0 0 1000 1000;" xml:space="preserve">
<style type="text/css">
	.st0{fill:#FFFFFF;}
	.st1{fill:#DD952E;}
</style>
<g>
	<path class="st0" d="M289.49,831.54c-16.47,0.87-32.96,0.12-49.43,0.4c-3.43,0.06-3.07-2.29-3.06-4.43
		c0.01-22.99-0.43-46,0.3-68.97c0.32-10-2.13-17.21-9.53-24.43c-32.32-31.48-63.91-63.72-95.95-95.5c-3.49-3.47-3.27-5.23,0.09-8.56
		c33.69-33.44,67.18-67.1,100.84-100.57c3.07-3.05,4.42-6.07,4.41-10.45c-0.17-47.98-0.07-95.96-0.25-143.94
		c-0.02-4.59,2.57-3.72,5.13-3.72c39.98-0.01,79.97,0,119.95,0c8.5,0,16.99-0.05,25.49-0.01c2.07,0.01,3.74-0.32,5.35-1.95
		c28.2-28.33,56.47-56.59,84.73-84.88c0.35-0.35,0.62-0.78,0.93-1.17c2.39,0.67,4.8,1.3,7.17,2.02c8.52,2.59,8.3,2.55,6.03,11.15
		c-5.41,20.49-13.44,40.54-11.04,62.42c0.33,2.99-1.33,3.37-3.86,3.73c-11.49,1.66-20.19,7.31-24.71,18.41
		c-2.3,5.66-2.63,11.65-2.45,17.65c0.08,2.58-0.69,4.36-2.87,5.85c-21.76,14.95-41.03,32.73-58.95,52.03
		c-17.48,18.82-32.98,39.13-46.36,61.05c-12.24,20.06-22.88,40.96-31.29,62.91c-5.47,14.28-10.35,28.79-13.12,43.9
		c-0.2,1.1-1.05,2.43,0.23,3.1c0.61,0.32,1.83-0.38,2.71-0.77c1.21-0.54,2.38-1.21,3.53-1.87c18.85-10.85,38.91-18.84,59.63-25.25
		c23.68-7.32,47.81-12.7,72.33-16.31c17.76-2.62,35.59-4.56,53.53-5.2c28.85-1.01,57.51,1.42,85.92,6.17
		c31.72,5.31,62.74,13.38,92.54,25.76c12.72,5.29,24.91,11.63,37.35,17.94c0.78-1.77,0.46-3.18,0.07-4.62
		c-1.96-7.22-3.67-14.51-5.9-21.64c-13.4-42.84-34.21-81.88-61.45-117.44c-22.78-29.75-49.43-55.73-79.57-78.01
		c-4.21-3.11-5.82-6.25-5.76-11.47c0.2-18.12-9-29.09-26.77-32.09c-3.55-0.6-4.17-1.83-4.24-5.01c-0.18-7.63,1.28-15.37-0.66-22.86
		c-3.28-12.67-6.88-25.26-10.55-37.82c-2.89-9.87-3.01-9.79,6.75-12.02c1.8-0.41,3.53-0.97,5.39-0.68
		c28.22,28.31,56.47,56.59,84.6,84.98c2.13,2.15,4.4,1.97,6.83,1.97c47.82,0.01,95.65,0.06,143.47-0.12
		c4.61-0.02,5.74,1.19,5.72,5.75c-0.17,47.66-0.06,95.31-0.2,142.97c-0.01,3.86,1.26,6.44,3.91,9.08
		c33.65,33.48,67.15,67.11,100.83,100.56c3.46,3.43,4.26,5.31,0.25,9.28c-33.41,33.03-66.5,66.39-99.83,99.5
		c-3.54,3.52-5.26,6.92-5.2,12.1c0.31,25.49,0.14,50.99,0.19,76.48c0.01,2.84,0.18,5.24-3.92,5.18
		c-14.83-0.19-29.66-0.15-44.49-0.24c-0.63,0-1.26-0.37-1.89-0.57c0.69-5.46,0.18-10.93,0.18-16.41
		c-0.04-47.49-0.23-94.99,0.16-142.48c0.07-8.96-2.94-15.37-9.58-20.7c-4.56-3.66-9.38-7-14.59-9.55
		c-30.38-14.85-62.51-24.35-95.58-30.96c-35-7-70.29-10.18-106.01-9.02c-17.81,0.58-35.53,1.98-53.12,4.52
		c-26.85,3.87-53.24,9.98-78.99,18.66c-18.94,6.38-37.81,13-54.19,24.88c-5.7,4.13-11.2,9.11-11.22,16.78
		C289.32,721.9,289.45,776.72,289.49,831.54z"/>
	<path class="st1" d="M522.11,284.43c-1.87-0.29-3.6,0.28-5.39,0.68c-9.77,2.22-9.64,2.14-6.75,12.02
		c3.67,12.56,7.27,25.15,10.55,37.82c1.94,7.49,0.48,15.24,0.66,22.86c0.08,3.18,0.7,4.42,4.24,5.01
		c17.77,2.99,26.97,13.97,26.77,32.09c-0.06,5.22,1.55,8.35,5.76,11.47c30.14,22.28,56.78,48.26,79.57,78.01
		c27.24,35.56,48.05,74.6,61.45,117.44c2.23,7.13,3.94,14.42,5.9,21.64c0.39,1.43,0.71,2.85-0.07,4.62
		c-12.44-6.31-24.64-12.66-37.35-17.94c-29.8-12.39-60.82-20.46-92.54-25.76c-28.41-4.75-57.06-7.19-85.92-6.17
		c-17.95,0.63-35.77,2.58-53.53,5.2c-24.52,3.61-48.65,8.98-72.33,16.31c-20.72,6.41-40.78,14.4-59.63,25.25
		c-1.15,0.66-2.32,1.33-3.53,1.87c-0.88,0.39-2.1,1.09-2.71,0.77c-1.28-0.67-0.43-2-0.23-3.1c2.77-15.11,7.65-29.62,13.12-43.9
		c8.41-21.95,19.05-42.85,31.29-62.91c13.38-21.92,28.88-42.23,46.36-61.05c17.93-19.3,37.19-37.08,58.95-52.03
		c2.17-1.49,2.94-3.27,2.87-5.85c-0.18-6,0.14-11.99,2.45-17.65c4.52-11.1,13.22-16.75,24.71-18.41c2.53-0.37,4.19-0.74,3.86-3.73
		c-2.4-21.88,5.63-41.93,11.04-62.42c2.27-8.61,2.49-8.56-6.03-11.15c-2.38-0.72-4.78-1.35-7.17-2.02
		c-2.07-2.52-5.15-3.61-7.77-5.29c-21.7-13.9-28.8-33.93-25.03-58.75c5.02,12.53,12.09,23.15,24.8,29.02
		c12.58,5.82,25.21,5.73,37.62,0c13.07-6.03,20.99-16.47,24.15-30.51c3.14-13.91-0.93-26.21-9.52-38.19
		c6.58,0.58,10.74,3.98,14.55,7.29c16.18,14.07,23.01,31.99,19.65,53.15c-3.05,19.17-13.77,33.12-31.28,41.72
		C524.31,282.46,522.77,282.87,522.11,284.43z"/>
	<path class="st1" d="M289.49,831.54c-0.04-54.82-0.17-109.65-0.04-164.47c0.02-7.66,5.53-12.65,11.22-16.78
		c16.38-11.88,35.26-18.5,54.19-24.88c25.74-8.67,52.14-14.79,78.99-18.66c17.58-2.54,35.31-3.93,53.12-4.52
		c35.72-1.17,71,2.01,106.01,9.02c33.07,6.62,65.2,16.11,95.58,30.96c5.21,2.55,10.03,5.89,14.59,9.55
		c6.64,5.33,9.65,11.74,9.58,20.7c-0.4,47.49-0.2,94.98-0.16,142.48c0,5.47,0.52,10.94-0.18,16.41c-2.44,1.6-5.16,0.8-7.73,0.78
		c-10.07-0.09-20.15,0.61-30.22-0.32c0.07-2.83,0.21-5.65,0.21-8.48c0.01-32.63,0-65.26,0.02-97.89c0-2.15,0.24-4.31,0.4-6.46
		c1.1-14.13-4.31-25.51-15.71-33.47c-8.9-6.21-17.45-12.68-24.92-20.56c-4.01-4.23-4.97-4.38-9.03,0.09
		c-7.25,7.99-15.88,14.3-24.5,20.59c-10.14,7.39-15.48,16.97-15.48,29.58c0,38.74-0.06,77.49-0.1,116.23
		c-4.17,1.56-8.51,0.74-12.74,0.67c-9.39-0.16-18.81,0.86-28.18-0.51c-0.01-47.31,0.01-94.61-0.04-141.92
		c-0.01-11.24-3.8-20.97-12.92-27.89c-10.43-7.92-21.13-15.49-30.1-25.13c-2.27-2.44-3.52-0.33-4.8,1.04
		c-7.56,8.05-16.16,14.87-25.24,21.04c-11.1,7.54-16.57,17.34-16.3,31.14c0.54,27.64,0.15,55.3,0.19,82.95
		c0.03,19.65,0.12,39.3,0.18,58.95c-13.98,0.45-27.96,1.05-41.92-0.25c0.01-38.81-0.02-77.63,0.05-116.44
		c0.02-11.18-3.72-20.71-12.74-27.4c-10.29-7.63-20.58-15.18-29.46-24.47c-1.94-2.03-3.44-1.99-5.34,0.09
		c-6.98,7.62-15.18,13.93-23.7,19.58c-9.69,6.43-16.25,14.48-18.13,26.07c-1.01,6.26-0.5,12.57-0.52,18.85
		c-0.12,34.48-0.16,68.96-0.23,103.43c-2.74,1.78-5.81,0.9-8.7,0.85C306.29,831.95,297.86,832.89,289.49,831.54z"/>
	<path class="st0" d="M455.37,831.79c-0.06-19.65-0.16-39.3-0.18-58.95c-0.04-27.65,0.35-55.31-0.19-82.95
		c-0.27-13.8,5.21-23.6,16.3-31.14c9.08-6.17,17.69-12.99,25.24-21.04c1.28-1.37,2.53-3.48,4.8-1.04
		c8.97,9.65,19.67,17.22,30.1,25.13c9.12,6.92,12.91,16.65,12.92,27.89c0.05,47.31,0.04,94.61,0.04,141.92
		c-3.31,0.11-6.61,0.33-9.92,0.32C508.12,831.9,481.75,831.84,455.37,831.79z"/>
	<path class="st0" d="M323.38,831.27c0.07-34.48,0.11-68.96,0.23-103.43c0.02-6.29-0.49-12.59,0.52-18.85
		c1.88-11.59,8.43-19.64,18.13-26.07c8.52-5.65,16.72-11.96,23.7-19.58c1.9-2.07,3.4-2.12,5.34-0.09
		c8.87,9.29,19.17,16.84,29.46,24.47c9.02,6.69,12.76,16.22,12.74,27.4c-0.07,38.81-0.04,77.63-0.05,116.44
		c-2.64,0.12-5.28,0.34-7.92,0.34c-25.59,0.02-51.17,0.01-76.76,0C326.95,831.89,325.09,832.19,323.38,831.27z"/>
	<path class="st0" d="M585.34,831.44c0.04-38.74,0.11-77.49,0.1-116.23c0-12.61,5.34-22.18,15.48-29.58
		c8.62-6.29,17.25-12.6,24.5-20.59c4.06-4.47,5.02-4.32,9.03-0.09c7.47,7.88,16.02,14.34,24.92,20.56
		c11.4,7.96,16.8,19.34,15.71,33.47c-0.17,2.15-0.4,4.3-0.4,6.46c-0.02,32.63-0.01,65.26-0.02,97.89c0,2.83-0.14,5.65-0.21,8.48
		c-28.73,0.04-57.45,0.08-86.18,0.09C587.29,831.88,586.31,831.59,585.34,831.44z"/>
	<path class="st1" d="M467.64,222.89c0.82-4.76,1.57-8.73,3.4-12.5c3.6-7.43,2.51-10.45-4.43-14.83c-3.7-2.34-7.06-5.22-11.07-8.22
		c5.61-2,10.59-0.81,15.46-0.77c5.54,0.05,9.14-1.69,10.37-7.48c0.79-3.73,2.06-7.36,3.2-11c0.28-0.9,0.6-2.06,1.85-2.06
		c1.23-0.01,1.62,1.12,1.92,2.01c1.22,3.62,2.19,7.33,3.53,10.91c2.6,6.98,4.71,8.41,12.17,7.37c4.23-0.59,8.26-0.16,12.69,0.56
		c-0.72,3.01-3.66,3.72-5.46,5.36c-2.69,2.44-5.72,4.56-8.8,6.51c-2.67,1.68-2.9,3.76-1.99,6.42c1.66,4.88,3.26,9.78,4.89,14.67
		c0.32,0.95,0.73,1.98-0.4,2.66c-0.92,0.55-1.54-0.24-2.18-0.72c-3.88-2.85-7.81-5.63-11.59-8.61c-3.01-2.37-5.47-2.82-8.79-0.06
		C478.1,216.65,473.82,220.41,467.64,222.89z"/>
</g>
</svg>
