<?xml version="1.0" encoding="utf-8"?>
<!-- Generator: Adobe Illustrator 26.2.1, SVG Export Plug-In . SVG Version: 6.00 Build 0)  -->
<svg version="1.1" id="Layer_1" xmlns="http://www.w3.org/2000/svg" xmlns:xlink="http://www.w3.org/1999/xlink" x="0px" y="0px"
	 viewBox="0 0 1000 1000" style="enable-background:new 0 0 1000 1000;" xml:space="preserve">
<style type="text/css">
	.st0{fill:#FFFFFF;}
</style>
<g>
	<path class="st0" d="M258.47,578.43c-33.48,0-65.58-0.09-97.67,0.09c-3.04,0.02-3.91,0-6.32,0c-1.4-2.51-2.21-4.85-2.77-6.99
		c-23.36-90.75-18.17-179.05,23.27-263.97c19.33-39.61,41.88-69.04,71.4-95.36C197.08,336.81,196.8,458.49,258.47,578.43z"/>
	<path class="st0" d="M771.38,279.17v-20.09c-12.24,0-14.07,0-14.07-16.67c0-8.86,0.49-16.89-2.67-25.12
		c-15.18-20.99-12.73-28.71-12.62-29.76c0.85-7.68-1.97-14.71-3.87-21.91c-0.79-3.03-0.88-3,2.11-3.92
		c0.84-0.25,4.33-1.98,5.25-2.56c7.62-4.88,10.1-11.92,8.78-20.63c-1.76,4.4-4.24,8.14-8.7,10.2c-4.41,2.04-8.85,2-13.2,0
		c-4.59-2.13-7.37-5.79-8.48-10.72c-1.1-4.88,0.32-9.2,3.34-13.4c-2.31,0.2-3.77,1.4-5.11,2.56c-5.67,4.93-8.07,11.23-6.9,18.66
		c1.08,6.73,4.83,11.63,10.99,14.65c0.46,0.22,2.5,1.01,3.13,1.15c3.42,0.78,3.38,0.75,2.36,4.23c-1.29,4.4-2.55,8.83-3.7,13.28
		c-0.68,2.62-0.17,5.34-0.23,8.02c-0.02,1.11-2.93,17.46-12.98,30.15c-3.56,8.94-2.76,15.58-2.76,26.96
		c0,15.08-8.88,15.08-12.97,15.08l-0.14,20.04c7.69,0,10.95,2.02,10.95,5.81v122.68c-3.94,0.4-7.32,0.7-11,1.05v23.86
		c3.86,0.48,7.2,0.91,10.97,1.36v165.41H560.1c0-5.17-0.1-10-0.1-14.84c0-16.81,0.9-16.48,4.3-22.92c3.19-6.05,3.1-10.03-0.3-12.86
		c-2.91-2.42-3.6-6.7-3.99-10.16c-1.89-17.23-5.39-33.81-15.74-48.19c-23.12-32.19-65.87-31.01-87.22,2.31
		c-9.35,14.61-12.9,30.83-14.17,47.85c-0.17,2.46-0.59,7.22-2.94,8.23c-2.03,0.88-7.12,5.12-1.76,12.99
		c5.3,7.78,4.44,12.52,4.44,22.93l-70.11,0.22c-0.01-2.77-0.06-5.39-0.06-8.01c0-9.94,0.53-9.74,2.55-13.55
		c1.88-3.57,1.83-5.92-0.17-7.6c-1.72-1.42-2.13-3.96-2.36-6c-1.13-10.2-3.19-19.99-9.31-28.5c-13.66-19.03-38.93-18.32-51.56,1.37
		c-5.53,8.64-7.63,18.22-8.38,28.29c-0.1,1.45-0.36,4.27-1.73,4.86c-1.2,0.52-4.22,3.03-1.04,7.69c3.13,4.59,2.62,7.39,2.62,13.55
		v8.11l-155,0.48c0,33.95,0.17,66.7-0.14,99.46c-0.09,5.84,3.46,6.53,7.33,7.63c85.28,25.14,170.63,50.26,256.01,75.21
		c4.99,1.5,16.57,2.1,16.57,2.1h11.05c0,0,0.11-32.49,0.11-41.73c0.53-8.53,5.82-15.34,14.66-15.34s14.49,6.49,14.77,15.39v41.65
		h11.98c0-1.03,0.11-32.61,0.11-41.7c0.53-8.53,5.82-15.34,14.66-15.34c8.84,0,14.49,6.49,14.77,15.39v41.64l171.69-0.09
		c0,0,0.05,0,0.17-0.05c3.91-0.83,66.35-14.07,77.93-26.4V434.27c3.91-0.57,7.28-1.05,10.92-1.57v-23.6
		c-3.86-0.48-7.23-0.91-10.69-1.36c-0.31-1.45-0.83-2.53-0.83-3.63c-0.05-39.43,0.12-79.13,0.12-118.55
		C759.28,281.22,763.75,279.17,771.38,279.17z M359.16,571.42c0.07-1.94,0.99-3.62,2.99-4.96c2.15,1.34,3.02,3.03,3,4.96v13.72
		l-6,0.02V571.42z M321.98,571.42c0.09-1.94,0.99-3.62,2.99-4.96c2.16,1.34,3.02,3.03,3.02,4.96v13.85l-6.01,0.01V571.42z
		 M184.95,623.14c-0.04,0.49-0.15,31.91-0.15,31.91l-20.41,0.01c0,0,0.02-23.91,0.01-32.79c0-2.89,1.22-5.08,3.55-6.78
		c1.98-1.45,3.96-2.89,5.63-4.72c0.93-1.03,1.15-0.99,2.06-0.02c1.72,1.81,3.67,3.29,5.71,4.71
		C183.96,617.3,185.21,619.91,184.95,623.14z M212.29,623.14c-0.04,0.49-0.15,31.91-0.15,31.91l-20.41,0.01
		c0,0,0.02-23.91,0.01-32.79c0-2.89,1.22-5.08,3.55-6.78c1.98-1.45,3.96-2.89,5.63-4.72c0.93-1.03,1.15-0.99,2.06-0.02
		c1.72,1.81,3.67,3.29,5.71,4.71C211.3,617.3,212.55,619.91,212.29,623.14z M239.63,623.14c-0.04,0.49-0.15,31.91-0.15,31.91
		l-20.41,0.01c0,0,0.02-23.91,0.01-32.79c0-2.89,1.22-5.08,3.55-6.78c1.98-1.45,3.96-2.89,5.63-4.72c0.93-1.03,1.15-0.99,2.06-0.02
		c1.72,1.81,3.67,3.29,5.71,4.71C238.64,617.3,239.88,619.91,239.63,623.14z M266.96,623.14c-0.04,0.49-0.15,31.91-0.15,31.91
		l-20.41,0.01c0,0,0.02-23.91,0.01-32.79c0-2.89,1.22-5.08,3.55-6.78c1.98-1.45,3.96-2.89,5.63-4.72c0.93-1.03,1.15-0.99,2.06-0.02
		c1.72,1.81,3.67,3.29,5.71,4.71C265.97,617.3,267.22,619.91,266.96,623.14z M305.32,639.9c-0.04,0.49-0.14,31.91-0.14,31.91
		l-20.42,0.01c0,0,0.02-23.91,0.02-32.79c0-2.89,1.22-5.08,3.55-6.78c1.97-1.45,3.94-2.89,5.61-4.72c0.93-1.03,1.15-0.99,2.06-0.02
		c1.72,1.81,3.67,3.29,5.71,4.71C304.35,634.05,305.58,636.66,305.32,639.9z M309.59,571.42c0.07-1.94,0.99-3.62,2.99-4.96
		c2.15,1.34,3.02,3.03,3,4.96v13.88l-6,0.01V571.42z M332.66,639.9c-0.04,0.49-0.14,31.91-0.14,31.91l-20.42,0.01
		c0,0,0.02-23.91,0.02-32.79c0-2.89,1.22-5.08,3.55-6.78c1.97-1.45,3.94-2.89,5.61-4.72c0.93-1.03,1.15-0.99,2.06-0.02
		c1.72,1.81,3.67,3.29,5.71,4.71C331.68,634.05,332.92,636.66,332.66,639.9z M334.37,571.42c0.09-1.94,0.99-3.62,3-4.96
		c2.15,1.34,3.02,3.03,3,4.96v13.81l-6.01,0.01V571.42z M346.76,571.42c0.09-1.94,1-3.62,3-4.96c2.15,1.34,3.02,3.03,3,4.96v13.77
		l-6.01,0.01V571.42z M371.04,654.3c-0.05,0.49-0.15,31.91-0.15,31.91l-20.42,0.01c0,0,0.02-23.9,0.02-32.79
		c0-2.89,1.22-5.08,3.55-6.78c1.98-1.45,3.96-2.89,5.61-4.72c0.93-1.03,1.15-0.99,2.06-0.02c1.72,1.81,3.67,3.29,5.71,4.71
		C370.05,648.45,371.28,651.06,371.04,654.3z M398.37,654.3c-0.05,0.49-0.15,31.91-0.15,31.91l-20.42,0.01c0,0,0.02-23.9,0.02-32.79
		c0-2.89,1.22-5.08,3.55-6.78c1.98-1.45,3.96-2.89,5.61-4.72c0.93-1.03,1.15-0.99,2.06-0.02c1.72,1.81,3.67,3.29,5.71,4.71
		C397.38,648.45,398.62,651.06,398.37,654.3z M463.81,599.2h-10.15v-24.13c0.14-3.28,1.67-6.12,5.07-8.38
		c3.63,2.26,5.11,5.13,5.08,8.38V599.2z M537.51,575.06c0.15-3.28,1.68-6.12,5.07-8.38c3.63,2.26,5.11,5.13,5.09,8.38v24.13h-10.16
		V575.06z M495.59,575.06c0.14-3.28,1.67-6.12,5.07-8.38c3.63,2.26,5.11,5.13,5.09,8.38v24.13h-10.16V575.06z M474.63,575.06
		c0.14-3.28,1.67-6.12,5.06-8.38c3.65,2.26,5.12,5.13,5.09,8.38v24.13h-10.15V575.06z M513.35,650.16
		c-0.07,0.98-0.28,36.05-0.28,36.05l-40.85,0.01c0,0,0.05-20.03,0.05-37.8c0-5.79,2.45-10.18,7.1-13.56
		c3.94-2.88,7.9-5.77,11.23-9.43c1.87-2.05,2.3-1.98,4.14-0.05c3.42,3.61,7.34,6.58,11.42,9.42
		C511.39,638.46,513.86,643.68,513.35,650.16z M526.71,599.2h-10.15v-24.13c0.14-3.28,1.67-6.12,5.07-8.38
		c3.63,2.26,5.11,5.13,5.08,8.38V599.2z M568.02,650.16c-0.07,0.98-0.28,36.05-0.28,36.05l-40.85,0.01c0,0,0.05-20.03,0.05-37.8
		c0-5.79,2.45-10.18,7.1-13.56c3.94-2.88,7.9-5.77,11.23-9.43c1.87-2.05,2.3-1.98,4.14-0.05c3.42,3.61,7.34,6.58,11.42,9.42
		C566.06,638.46,568.53,643.68,568.02,650.16z M622.71,650.16c-0.09,0.98-0.3,36.05-0.3,36.05l-40.85,0.01c0,0,0.05-20.03,0.05-37.8
		c0-5.79,2.45-10.18,7.1-13.56c3.96-2.88,7.91-5.77,11.23-9.43c1.87-2.05,2.31-1.98,4.14-0.05c3.42,3.61,7.34,6.58,11.42,9.42
		C620.73,638.46,623.2,643.68,622.71,650.16z M677.38,650.16c-0.09,0.98-0.3,36.05-0.3,36.05l-40.85,0.01c0,0,0.05-20.03,0.05-37.8
		c0-5.79,2.45-10.18,7.1-13.56c3.96-2.88,7.91-5.77,11.23-9.43c1.87-2.05,2.31-1.98,4.14-0.05c3.42,3.61,7.34,6.58,11.42,9.42
		C675.4,638.46,677.87,643.68,677.38,650.16z M739.84,721.53c0.01,2.7-1.2,5.07-4.22,6.94c-2.81-1.87-4.08-4.22-4.19-6.94v-21.78
		c0.11-2.72,1.38-5.07,4.19-6.94c3.02,1.88,4.23,4.25,4.22,6.94V721.53z M739.84,682.8c0.01,2.68-1.2,5.06-4.22,6.94
		c-2.81-1.87-4.08-4.22-4.19-6.94v-0.05c0.11-2.72,1.38-5.07,4.19-6.94c3.02,1.88,4.23,4.25,4.22,6.94V682.8z M739.84,664.88
		c0.01,2.7-1.2,5.07-4.22,6.94c-2.81-1.85-4.08-4.22-4.19-6.94v-21.77c0.11-2.72,1.38-5.08,4.19-6.95c3.02,1.88,4.23,4.25,4.22,6.95
		V664.88z M739.84,587.19c0.01,2.7-1.2,5.07-4.22,6.94c-2.81-1.87-4.08-4.22-4.19-6.94v-21.78c0.11-2.71,1.38-5.07,4.19-6.94
		c3.02,1.88,4.23,4.25,4.22,6.94V587.19z M739.84,548.46c0.01,2.68-1.2,5.06-4.22,6.94c-2.81-1.87-4.08-4.22-4.19-6.94v-0.05
		c0.11-2.72,1.38-5.07,4.19-6.94c3.02,1.88,4.23,4.25,4.22,6.94V548.46z M739.84,530.54c0.01,2.7-1.2,5.07-4.22,6.95
		c-2.81-1.87-4.08-4.23-4.19-6.95v-21.77c0.11-2.72,1.38-5.08,4.19-6.95c3.02,1.88,4.23,4.25,4.22,6.95V530.54z M739.84,489.54
		c0.01,2.68-1.2,5.06-4.22,6.94c-2.81-1.87-4.08-4.22-4.19-6.94v-0.05c0.11-2.72,1.38-5.07,4.19-6.94c3.02,1.87,4.23,4.24,4.22,6.94
		V489.54z M739.84,471.63c0.01,2.7-1.2,5.07-4.22,6.94c-2.81-1.87-4.08-4.22-4.19-6.94v-21.77c0.11-2.72,1.38-5.08,4.19-6.95
		c3.02,1.88,4.23,4.25,4.22,6.95V471.63z M740.33,387.13c0.01,3.54-1.58,6.65-5.54,9.11c-3.68-2.45-5.35-5.54-5.5-9.11v-28.6
		c0.15-3.57,1.82-6.66,5.5-9.11c3.96,2.46,5.55,5.58,5.54,9.11V387.13z M740.33,329.21c0.01,3.54-1.58,6.65-5.54,9.11
		c-3.68-2.45-5.35-5.54-5.5-9.11v-28.6c0.15-3.57,1.82-6.66,5.5-9.11c3.96,2.46,5.55,5.58,5.54,9.11V329.21z"/>
	<path class="st0" d="M829.48,736.54c-0.01,0.02-0.02,0.05-0.05,0.07C760.1,820.8,655.08,874.47,537.51,874.47
		c-42.85,0-84.05-7.13-122.45-20.28c-0.04-0.01-0.07-0.02-0.11-0.05c-60.1-20.57-113.36-55.88-155.46-101.6
		c-8.7-9.42-16.9-19.27-24.59-29.54c10.37,3.07,19.99,5.92,29.59,8.77c47.71,14.03,95.42,28.19,143.18,42.01
		c6.01,1.71,12.59,2.1,18.9,2.19c18.24,0.22,36.52-0.62,54.77,0.09c24.5,1.01,49.11,2.37,73.54,4.78
		c39.33,3.86,78.05,0.04,116.6-7.5c3.42-0.66,6.8-1.31,10.18-3.24c0,0,0.05,0,0.17-0.05c3.91-0.83,66.35-14.07,77.93-26.4
		c39.77-17.19,73.64-45.83,106.44-71.83C866.84,672.28,850.23,707.7,829.48,736.54z"/>
</g>
</svg>
