<?xml version="1.0" encoding="utf-8"?>
<!-- Generator: Adobe Illustrator 24.0.2, SVG Export Plug-In . SVG Version: 6.00 Build 0)  -->
<svg version="1.1" id="Layer_1" xmlns="http://www.w3.org/2000/svg" xmlns:xlink="http://www.w3.org/1999/xlink" x="0px" y="0px"
	 viewBox="0 0 100 100" style="enable-background:new 0 0 100 100;" xml:space="preserve">
<style type="text/css">
	.st0{fill:#FFFFFF;}
</style>
<g>
	<g>
		<path class="st0" d="M33.33,58.02c0.02-0.34,0-0.67-0.04-1c-0.05-0.33-0.14-0.65-0.27-0.96c-0.13-0.31-0.32-0.61-0.55-0.9
			c-0.29-0.34-0.64-0.64-1.06-0.88c-0.41-0.24-0.86-0.45-1.34-0.62c-0.48-0.17-0.98-0.32-1.49-0.44c-0.51-0.12-1-0.23-1.48-0.34
			c-0.48-0.1-0.92-0.2-1.33-0.31c-0.41-0.1-0.75-0.22-1.03-0.36l-0.1,0.12c0.13,0.17,0.36,0.33,0.68,0.49
			c0.32,0.15,0.69,0.3,1.12,0.44c0.43,0.15,0.88,0.3,1.38,0.46c0.49,0.16,0.98,0.35,1.47,0.55c0.48,0.2,0.95,0.44,1.39,0.7
			c0.44,0.26,0.82,0.57,1.13,0.91c0.32,0.35,0.55,0.75,0.7,1.2c0.15,0.45,0.18,0.97,0.09,1.54c-0.09,0.56-0.29,1.11-0.62,1.65
			c-0.33,0.54-0.74,1.04-1.24,1.51c-0.5,0.47-1.07,0.9-1.71,1.28c-0.64,0.38-1.32,0.7-2.05,0.94c-0.72,0.25-1.47,0.41-2.24,0.5
			c-0.77,0.09-1.53,0.08-2.28-0.04c-0.8-0.12-1.51-0.36-2.14-0.72c-0.63-0.36-1.15-0.8-1.57-1.33c-0.42-0.53-0.72-1.12-0.9-1.77
			c-0.18-0.66-0.22-1.34-0.11-2.06c0.1-0.68,0.36-1.38,0.76-2.08c0.4-0.71,0.97-1.42,1.69-2.14c0.73-0.72,1.63-1.45,2.7-2.19
			c1.07-0.74,2.33-1.48,3.77-2.24c0,0,0,0,0,0c0.23,0.11,0.43,0.2,0.62,0.26c0,0,0,0,0.01,0c0.12,0.04,0.23,0.08,0.33,0.1
			c0.14,0.04,0.27,0.06,0.38,0.09c0.1,0.02,0.18,0.04,0.26,0.05c0.35,0.05,0.7,0.07,1.06,0.04c0.36-0.03,0.7-0.11,1.04-0.23
			c0.34-0.12,0.65-0.3,0.96-0.51c0.3-0.22,0.58-0.49,0.82-0.82c-0.07-0.08-0.18-0.17-0.35-0.25c-0.17-0.08-0.36-0.17-0.58-0.25
			c-0.22-0.08-0.46-0.17-0.72-0.25c-0.26-0.07-0.51-0.15-0.75-0.23c-0.24-0.07-0.47-0.14-0.67-0.21c-0.18-0.05-0.33-0.1-0.45-0.15
			c0,0,0,0,0,0c-0.02-0.01-0.03-0.01-0.05-0.02l-0.04-0.05c0.08-0.21,0.17-0.43,0.26-0.66c0.09-0.23,0.18-0.45,0.26-0.66
			c0.08-0.21,0.15-0.41,0.21-0.6c0.06-0.18,0.09-0.34,0.11-0.47c0.08-0.55-0.03-1.01-0.35-1.36c-0.32-0.35-0.88-0.59-1.69-0.71
			c-0.31-0.05-0.65-0.06-1.04-0.05c-0.39,0.01-0.8,0.06-1.24,0.13c-0.44,0.07-0.9,0.18-1.38,0.31c-0.48,0.13-0.97,0.28-1.46,0.46
			c-0.11,0.48-0.3,0.98-0.57,1.49c-0.27,0.51-0.59,1.05-0.98,1.63l0.09,0.12c0.35-0.21,0.69-0.37,1.01-0.48
			c0.32-0.11,0.62-0.14,0.92-0.1c0.22,0.03,0.42,0.11,0.61,0.23c0.19,0.12,0.36,0.26,0.53,0.41c0.17,0.16,0.34,0.32,0.51,0.5
			c0.16,0.18,0.34,0.36,0.52,0.52l-0.01,0.06c-1.15,0.65-2.19,1.37-3.12,2.15c-0.93,0.78-1.75,1.64-2.45,2.56
			c-0.7,0.93-1.28,1.93-1.73,3.01c-0.46,1.08-0.78,2.24-0.97,3.5c-0.18,1.19-0.18,2.25,0,3.2c0.18,0.95,0.5,1.76,0.95,2.45
			c0.45,0.69,1.01,1.24,1.68,1.65c0.67,0.41,1.41,0.68,2.21,0.81c1.07,0.16,2.09,0.15,3.06-0.04c0.97-0.19,1.88-0.49,2.73-0.92
			c0.85-0.42,1.62-0.94,2.31-1.55c0.7-0.61,1.3-1.26,1.82-1.95c0.52-0.69,0.94-1.39,1.26-2.1c0.32-0.71,0.53-1.38,0.63-2.02
			C33.28,58.7,33.31,58.35,33.33,58.02z"/>
		<path class="st0" d="M42.85,43.06c-0.15-0.22-0.35-0.42-0.6-0.59c-0.25-0.18-0.54-0.34-0.86-0.5c-0.32-0.16-0.62-0.34-0.91-0.54
			c-0.29-0.2-0.54-0.43-0.76-0.7c-0.22-0.27-0.36-0.6-0.41-0.99c-0.01-0.08-0.03-0.14-0.06-0.17c-0.03-0.03-0.06-0.05-0.1-0.08
			c-0.44,0.49-0.77,0.95-1,1.36c-0.23,0.41-0.37,0.79-0.42,1.13c-0.03,0.18-0.04,0.37-0.02,0.56c0.01,0.19,0.06,0.36,0.14,0.53
			l-0.03,0.08c-0.23,0.05-0.46,0.14-0.7,0.3c-0.23,0.15-0.47,0.34-0.72,0.57c-0.25,0.22-0.51,0.47-0.78,0.73
			c-0.27,0.26-0.56,0.53-0.87,0.79c-1.05,0.89-2.04,1.49-2.98,1.82c-0.94,0.32-1.82,0.42-2.66,0.29c-0.15-0.02-0.31-0.05-0.48-0.09
			c0,0,0,0,0,0c-0.09-0.02-0.18-0.04-0.28-0.07c-0.27-0.07-0.51-0.12-0.72-0.15c-0.18-0.03-0.38-0.01-0.58,0.05
			c-0.21,0.06-0.41,0.15-0.6,0.27c-0.2,0.12-0.38,0.27-0.55,0.44c-0.17,0.17-0.32,0.36-0.45,0.56c0.11,0.28,0.27,0.52,0.47,0.73
			c0.2,0.21,0.44,0.38,0.71,0.52c0.01,0.01,0.03,0.01,0.04,0.02c0.19,0.1,0.4,0.18,0.62,0.26c0,0,0,0,0.01,0
			c0.08,0.03,0.16,0.05,0.24,0.07c0.15,0.04,0.31,0.08,0.48,0.12c0.19,0.04,0.38,0.08,0.58,0.11c0.65,0.1,1.26,0.1,1.84,0.02
			c0.58-0.09,1.13-0.25,1.66-0.48c0.53-0.24,1.02-0.54,1.49-0.92c0.47-0.37,0.91-0.81,1.33-1.3c0.33-0.39,0.64-0.72,0.91-0.99
			c0.27-0.28,0.53-0.5,0.78-0.66c0.25-0.16,0.5-0.28,0.75-0.34c0.25-0.06,0.54-0.07,0.85-0.02c0.4,0.06,0.82,0.18,1.27,0.36
			c0.45,0.18,0.89,0.4,1.32,0.67c0.29-0.16,0.56-0.36,0.81-0.59c0.25-0.23,0.48-0.49,0.67-0.75c0.19-0.27,0.36-0.54,0.48-0.83
			c0.13-0.28,0.21-0.55,0.25-0.81C43.05,43.54,42.99,43.28,42.85,43.06z"/>
		<path class="st0" d="M68.96,37.49c-0.66,0.35-1.26,0.61-1.8,0.76c-0.54,0.15-1.05,0.24-1.54,0.27c-0.49,0.03-0.97,0.01-1.44-0.06
			c-0.47-0.07-0.97-0.14-1.5-0.22c-0.53-0.07-1.1-0.13-1.73-0.18C60.34,38,59.63,38,58.85,38.05c-0.64,0.05-1.22,0.18-1.72,0.39
			c-0.5,0.22-0.93,0.49-1.3,0.84c-0.36,0.35-0.65,0.75-0.87,1.2c-0.22,0.46-0.37,0.94-0.45,1.46c-0.15,0.97-0.16,1.89-0.04,2.77
			c0.12,0.88,0.38,1.85,0.71,2.7c-0.66,0.5-1.4,0.89-2.1,1.07c-1.49,0.4-4.09,1.34-5.17-1.06c-0.94-2.08-1.01-5.2-1.29-7.42
			c-0.26-2.08-0.48-4.16-0.69-6.24c-0.09-0.95-0.18-1.89-0.28-2.84c-0.06-0.52-0.12-1.04-0.2-1.55c-0.04-0.25-0.38-1.25-0.27-1.44
			c-0.34,0.59-0.68,1.18-1.02,1.77c-0.11,0.19-0.22,0.38-0.24,0.59c-0.02,0.15,0.01,0.31,0.03,0.46c0.7,4.3,1.22,8.62,1.55,12.97
			c0.1,1.26,0.18,2.53,0.51,3.75c0.4,1.47,1.24,2.98,2.63,3.72c0.48,0.25,0.98,0.42,1.49,0.5c0.94,0.14,1.93,0.06,2.96-0.24
			c1.03-0.3,2.04-0.75,3.04-1.33l0.08,0.01c0.16,0.37,0.3,0.77,0.42,1.21c0.12,0.43,0.24,0.92,0.35,1.45
			c0.01,0.09,0.04,0.14,0.09,0.15s0.08-0.02,0.1-0.07c0.02-0.05,0.04-0.1,0.04-0.16c0.09-0.56,0.14-1.11,0.16-1.66
			c0.02-0.55,0-1.08-0.08-1.6c0.86-0.54,1.68-1.09,2.47-1.65c0.79-0.57,1.54-1.15,2.25-1.75c0.71-0.6,1.37-1.21,1.99-1.85
			c0.62-0.63,2.24-2.33,3.01-2.84c0,0,1.79-1.22,2.05-1.53c0.22-0.27,0.15-1.1,0.13-1.36c-0.04-0.47-0.05-0.64-0.1-0.87L68.96,37.49
			z M61.84,43.07c-0.59,0.47-1.19,0.92-1.8,1.34c-0.61,0.42-1.22,0.82-1.82,1.18c-0.61,0.37-1.18,0.7-1.73,1l-0.08-0.04
			c-0.38-0.7-0.66-1.33-0.87-1.89c-0.2-0.55-0.28-1-0.23-1.34c0.05-0.36,0.21-0.7,0.46-1.02c0.25-0.33,0.62-0.6,1.11-0.82
			c0.49-0.22,1.11-0.37,1.86-0.44c0.75-0.07,1.66-0.03,2.72,0.13c0.37,0.06,0.74,0.11,1.09,0.17c0.36,0.06,0.66,0.12,0.93,0.19
			l0.04,0.06C62.99,42.11,62.43,42.61,61.84,43.07z"/>
	</g>
	<g>
		<g>
			<polygon class="st0" points="25.87,54.7 25.86,54.7 25.86,54.7 			"/>
			<polygon class="st0" points="25.87,54.7 25.87,54.7 25.87,54.7 			"/>
			<g>
				<polygon class="st0" points="25.87,54.7 25.86,54.7 25.86,54.7 				"/>
			</g>
		</g>
		<g>
			<g>
				<polygon class="st0" points="26.49,55.62 26.49,55.62 26.49,55.62 				"/>
			</g>
		</g>
	</g>
	<g>
		<g>
			<polygon class="st0" points="38.54,88.64 38.49,88.95 38.49,88.95 38.53,88.64 			"/>
			<g>
				<path class="st0" d="M33.1,93.34"/>
				<path class="st0" d="M39.02,90.78c-0.13,0.36-0.34,0.69-0.56,0.76c-0.16,0.05-0.42,0.13-0.61,0.18c-0.61,0.16-2.08,0.61-3,0.77
					c-0.37,0.06-0.88,0.21-1,0.24c-0.18,0.04-0.4,0.09-0.54,0.11c-0.06,0.01-0.11-0.05-0.1-0.11c0.06-0.2,0.21-0.58,0.21-0.6
					c0.02-0.09,0.71-1.92,1.02-2.5c0.04-0.07,0.13-0.27,0.2-0.33c0.06-0.05,0.39-0.11,0.46-0.13c0.19-0.05,0.38-0.09,0.57-0.14
					c0.37-0.09,0.75-0.18,1.12-0.28c0.89-0.23,1.75-0.4,2.6-0.74c0.05-0.02,0.11-0.02,0.15-0.01c0.11,0.03,0.17,0.14,0.14,0.25
					l-0.29,1.15C39.41,89.42,39.13,90.49,39.02,90.78z"/>
				<path class="st0" d="M38.5,88.94C38.5,88.95,38.49,88.95,38.5,88.94c-0.01,0.01-0.01,0.01-0.01,0.01l0.05-0.31c0,0,0,0,0,0
					l0.01-0.08c0.01-0.09,0.04-0.23,0.04-0.23c0,0-0.04,0.28-0.04,0.31C38.54,88.68,38.53,88.9,38.5,88.94z"/>
				<path class="st0" d="M38.96,90.37"/>
			</g>
		</g>
		<g>
			<path class="st0" d="M45.67,77.37"/>
		</g>
		<g>
			<g>
				<path class="st0" d="M47.93,68.78c-0.24,0.62-0.49,1.24-0.74,1.85c-0.08,0.2-0.17,0.41-0.26,0.61
					c-0.02,0.04-0.08,0.23-0.11,0.24c0,0-0.02,0-0.02-0.01c-0.03-0.02-0.17-0.11-0.23-0.15c-0.13-0.08-0.26-0.15-0.38-0.23
					c-0.43-0.26-0.86-0.52-1.29-0.78c-0.03-0.02-0.11-0.13-0.11-0.25c0-0.16,0.09-0.29,0.12-0.37c0.36-0.87,0.73-1.73,1.08-2.61
					c0.03-0.08,0-0.06,0.08-0.05c0.07,0.01,0.15,0.07,0.22,0.1c0.13,0.06,0.26,0.12,0.39,0.19c0.2,0.1,0.41,0.2,0.6,0.32
					c0.23,0.14,0.46,0.3,0.68,0.47c0.12,0.09,0.09,0.25,0.09,0.25C48.03,68.48,47.96,68.69,47.93,68.78z"/>
			</g>
		</g>
		<g>
			<g>
				<path class="st0" d="M62.22,50.85c-0.24,0.62-0.49,1.24-0.74,1.85c-0.08,0.2-0.17,0.41-0.26,0.61
					c-0.02,0.04-0.08,0.23-0.11,0.24c0,0-0.02,0-0.02-0.01c-0.03-0.02-0.17-0.11-0.23-0.15c-0.13-0.08-0.26-0.15-0.38-0.23
					c-0.43-0.26-0.86-0.52-1.29-0.78c-0.03-0.02-0.11-0.13-0.11-0.25c0-0.16,0.09-0.29,0.12-0.37c0.36-0.87,0.73-1.73,1.08-2.61
					c0.03-0.08,0-0.06,0.08-0.05c0.07,0.01,0.15,0.07,0.22,0.1c0.13,0.06,0.26,0.12,0.39,0.19c0.2,0.1,0.41,0.2,0.6,0.32
					c0.23,0.14,0.46,0.3,0.68,0.47c0.12,0.09,0.09,0.25,0.09,0.25C62.32,50.55,62.26,50.77,62.22,50.85z"/>
			</g>
		</g>
		<g>
			<path class="st0" d="M70.99,52.26l-0.01,0.03c0-0.01,0-0.03,0.01-0.05C70.99,52.25,70.99,52.25,70.99,52.26z"/>
			<g>
				<path class="st0" d="M70.99,52.26l-0.01,0.03c0-0.01,0-0.03,0.01-0.05C70.99,52.25,70.99,52.25,70.99,52.26z"/>
			</g>
		</g>
	</g>
	<g>
		<path class="st0" d="M73.69,62.36c0,0.01,0,0.02-0.01,0.03c0.01-0.02,0.01-0.05,0.02-0.07C73.7,62.34,73.7,62.35,73.69,62.36z"/>
		<path class="st0" d="M21.08,76.76c-0.01,0.16-0.06,0.47-0.1,0.59c-0.24,0.89-0.48,1.77-0.74,2.66c-0.08,0.29-0.17,0.58-0.26,0.87
			c-0.02,0.05-0.07,0.33-0.11,0.34c-0.01,0-0.02,0-0.03-0.01c-0.05-0.02-0.25-0.12-0.34-0.17c-0.19-0.08-0.37-0.17-0.56-0.26
			c-0.63-0.29-1.26-0.58-1.9-0.87c-0.04-0.02-0.6-0.21-0.61-0.38c-0.02-0.19,0.05-0.56,0.08-0.57c0.03-0.14,1.02-3.63,1.06-3.7
			c0.02-0.03,0.04-0.06,0.06-0.08c0.03-0.03,0.06-0.05,0.1-0.05c0.06-0.01,0.12,0,0.17,0.02c0.06,0.01,0.11,0.03,0.17,0.05
			c0.07,0.02,0.14,0.05,0.21,0.07c0.08,0.03,0.16,0.06,0.24,0.08c0.08,0.03,0.16,0.06,0.24,0.08c0.07,0.02,0.13,0.05,0.2,0.07
			c0.03,0.01,0.06,0.02,0.09,0.03c0.3,0.11,0.59,0.22,0.88,0.35c0.34,0.15,0.68,0.34,1,0.54C21.1,76.53,21.08,76.76,21.08,76.76z"/>
		<path class="st0" d="M17.49,77.23c-0.03,0.1-0.06,0.2-0.09,0.31C17.43,77.43,17.46,77.33,17.49,77.23L17.49,77.23z"/>
		<path class="st0" d="M39.74,69.66c-0.01,0.09-0.03,0.18-0.04,0.28c-0.16,1.09-0.28,2.12-0.64,3.14c-0.51,1.67-1.04,3-2.2,3.86
			c-0.28,0.21-0.77,0.48-1.32,0.72c-0.08,0.03-0.16,0.07-0.25,0.1c-0.36,0.15-0.74,0.28-1.1,0.37c-0.23,0.06-0.46,0.08-0.69,0.08
			c-0.57,0-1.14-0.15-1.71-0.29c-0.08,0.89-0.16,1.78-0.28,2.67c0.06-0.56,0.14-1.45,0.26-2.67c0.01-0.11,0.02-0.22,0.03-0.34
			c-0.02,0.15-0.05,0.29-0.05,0.32c0,0,0,0.01,0,0.01c-0.1,1.06-0.19,2.12-0.3,3.17c-0.03,0.23-0.07,0.46-0.11,0.69l0,0.02
			c-0.04,0.24-0.09,0.48-0.14,0.72c0,0.01,0,0.03-0.01,0.04c-0.18,0.87-0.42,1.72-0.74,2.57c-0.61,1.58-1.45,3.07-2.45,4.43
			c-0.82,1.12-1.78,2.18-2.95,2.95c-2.03,1.33-4.66,1.4-6.62-0.13c-1.15-0.9-1.99-2.23-2.46-3.6c-0.24-0.71-0.39-1.45-0.42-2.2
			c-0.03-0.75,0.06-1.51,0.12-2.26c0.06-0.64,0.12-1.28,0.2-1.91c0.02-0.19,0.05-0.38,0.08-0.57c0.08-0.55,0.17-1.1,0.28-1.64
			l0-0.01c0-0.01,0.01-0.03,0.01-0.04c0.04-0.19,0.08-0.37,0.12-0.56c0.18-0.82,0.4-1.63,0.67-2.43l0.45,0.07l0.01,0
			c-0.03,0.1-0.06,0.2-0.09,0.31c-0.01,0.04-0.02,0.08-0.03,0.12c-0.13,0.43-0.25,0.91-0.36,1.3c-0.13,0.45-0.13,0.45-0.29,1.21
			c-0.11,0.51-0.19,1.09-0.18,1.71c0.01,0.61,0.09,1.22,0.24,1.81c0.57,2.26,2.12,4.21,4.42,4.82c1.08,0.29,2.17,0.27,3.22-0.09
			c1.22-0.41,2.29-1.19,3.23-2.05c1.01-0.92,1.91-1.98,2.5-3.22c0.13-0.28,0.25-0.56,0.34-0.85c0.05-0.14,0.09-0.28,0.13-0.43
			c0.02-0.09,0.04-0.19,0.07-0.28c0.01-0.03,0.02-0.1,0.03-0.11v0.01l0.01-0.04c0.01-0.05,0.01-0.1,0.02-0.14
			c0.01-0.05,0.01-0.1,0.02-0.15c0.05-0.53,0.05-1.08,0.02-1.61c-0.07-1.15-0.34-2.28-0.83-3.32c-0.12-0.27-0.26-0.53-0.41-0.78
			c-0.14-0.24-0.35-0.46-0.47-0.71c-0.15-0.31-0.02-0.72,0.03-1.04c0.2-1.26,0.54-2.5,1.13-3.63c0.09-0.17,0.04-0.12,0.14-0.03
			c0.07,0.06,0.12,0.19,0.17,0.27c0.09,0.14,0.18,0.29,0.26,0.43c0.18,0.29,0.35,0.58,0.52,0.88c0.32,0.56,0.62,1.14,0.9,1.73
			c0.03,0.08,0.07,0.15,0.1,0.23c0.05,0.12,0.04,0.1,0.15,0.15c0.11,0.04,0.27,0.03,0.38,0.03c0.28,0.01,0.56,0,0.83-0.04
			c1.25-0.17,2.46-0.78,3.48-1.49c0.23-0.16,0.45-0.33,0.67-0.51c0.21-0.17,0.41-0.35,0.6-0.53c0.41-0.41,0.75-0.89,1.05-1.38
			c0.04-0.07,0.09-0.16,0.16-0.22C39.71,69.54,39.75,69.59,39.74,69.66z"/>
		<path class="st0" d="M46.18,79.53c-0.53,2.05-0.72,2.37-1.28,3.22c-0.68,0.94-1.9,1.28-3.1,1.3c-0.69,0.01-1.37-0.08-1.94-0.23
			c-0.11-0.03-0.23-0.06-0.34-0.09c0,0,0,0,0,0c-0.49-0.18-0.95-0.43-1.37-0.74c-0.48-0.35-0.91-0.78-1.28-1.28
			c-0.51-0.68-0.9-1.45-1.18-2.26c-0.08-0.22-0.15-0.45-0.21-0.68c-0.02-0.08-0.1-0.54-0.15-0.6c0,0,0,0,0,0l-0.05-0.83l0.09-0.01
			c0.02,0.06,0.05,0.11,0.08,0.18c0.04,0.07,0.08,0.12,0.13,0.18c0.02,0.04,0.05,0.09,0.08,0.12l0,0.05l0.03,0
			c0.02,0.04,0.05,0.09,0.08,0.13l0,0.03l0.02,0c0.75,1.25,1.96,2.07,3.35,2.33c0.35,0.06,0.72,0.09,1.09,0.08
			c0.34-0.01,0.68-0.05,1.01-0.12c0.01,0,0.02,0,0.03,0c0.3-0.03,0.59-0.13,0.88-0.27c0.44-0.22,0.86-0.54,1.22-0.84
			c0.73-0.6,1.26-1.17,1.79-1.96c0.5-0.76,0.84-2.13,0.98-2.12c0.2,0.01,0.26,2.14,0.26,2.37C46.41,78.18,46.34,78.87,46.18,79.53z"
			/>
		<path class="st0" d="M57.96,79.09c0.34-0.17,0.64-0.48,0.88-0.76c0.58-0.66,0.99-1.46,1.26-2.3c0.45-1.39,0.64-2.9,0.73-4.37
			c0.01-0.1-0.03-0.21-0.12-0.26c-0.08-0.05-0.17-0.02-0.27,0.31c-0.11,0.37-0.26,1.16-0.39,1.52c-0.2,0.53-0.21,0.77-0.62,1.16
			c-0.39,0.37-0.55,0.48-1.06,0.7c-0.22,0.1-0.57,0.12-0.77,0.02c-0.29-0.16-0.21-0.71-0.19-0.96c0.02-0.19,0.08-0.59-0.04-0.75
			c-0.08-0.11-0.21-0.05-0.26,0.16c-0.12,0.46-0.19,0.93-0.36,1.37c-0.2,0.51-0.47,0.99-0.81,1.41c-0.62,0.77-1.88,1.64-2.23,1.5
			c-0.19-0.07-0.38-0.26-0.39-0.63l0.08-1.08c-0.05-0.51-0.23-0.18-0.29,0c-0.12,0.39-0.32,1.15-0.52,1.51
			c-0.25,0.46-0.6,0.79-0.96,1.17c-0.44,0.45-0.95,0.83-1.5,1.14c-0.82,0.45-1.74,0.73-2.67,0.8c-0.68,0.05-1.46,0.01-2.14-0.24
			c-0.63,0.1-1.73,1.88-1.89,2.41c0.1,0.22,0.21,0.44,0.23,0.48c0.2,0.33,1.12,1.11,1.65,1.39c1.21,0.65,2.74,0.96,5.34-1.35
			c0.41-0.37,1.06-1,1.44-1.35c0.1-0.1,0.46-0.47,0.56-0.53c0.2,0.12,0.85,0.36,1.05,0.37c1.05,0.07,1.64-0.85,1.96-1.28
			c0.14-0.2,0.28-0.47,0.4-0.68c0.1-0.18,0.19-0.36,0.32-0.53c0.02-0.02,0.08-0.13,0.14-0.19c0.45,0.05,0.91,0.07,1.33-0.1
			C57.89,79.12,57.92,79.1,57.96,79.09z"/>
		<g>
			<path class="st0" d="M76.2,72.42c-1.91,4.1-3.17,6.08-6.56,9.26c-1.6,1.49-3.77,1.84-4.73,1.9c-2.57,0.18-4.85-1.59-5.91-3.91
				c-0.35-0.78-0.57-1.61-0.68-2.45c-0.03-0.24-0.05-0.47-0.07-0.71c0-0.07,0-0.46-0.02-0.62c0,0,0,0,0,0h0.49c0,0,0,0,0,0
				c0.6,1.71,2.03,2.91,3.84,3.24c2.1,0.38,4.18-0.51,5.93-1.64c2.25-1.46,4.64-3.39,5.68-5.93c0.08-0.19,0.21-0.63,0.22-0.65
				c0,0,0,0,0,0c-0.14-0.51-0.72-0.25-1.03-0.11c-2.27,1.06-4.36,2.49-6.69,3.39c-0.97,0.37-1.53,0.57-1.99,0.14
				c-0.28-0.26-0.09-1.55,0.14-2.23c0.41-1.21,0.66-1.71,1.16-2.94c0.7-1.7,1.72-3.3,2.91-4.66c0.93-1.06,1.93-2.04,2.89-3.08
				c1.15-1.25,1.96-2.78,2.19-4.47c0.21-1.57-0.27-3.2-1.04-4.57c-0.09-0.16-0.19-0.32-0.29-0.48c-0.06-0.1-0.31-0.49-0.57-0.92
				c0,0,0,0,0,0c-0.02,0.24-0.04,0.49-0.06,0.74c-0.02,0.19-0.04,0.42-0.08,0.65c-0.03,0.23-0.07,0.45-0.11,0.65
				c-0.15,0.76-0.27,0.9-0.44,0.91c0,0-0.01,0-0.01,0c-0.22,0-0.27-0.28-0.29-0.4l0-0.03c0-1.31,0.08-2.18,0.19-3.38l0-0.05
				c0.08-0.89,0.21-1.82,0.53-3.99c0.04-0.2,0.15-0.4,0.34-0.42c0.22-0.02,0.33,0.2,0.37,0.27c0.18,0.32,0.49,0.85,0.58,1
				c0.22,0.36,0.39,0.78,0.56,1.18c0.06,0.14,0.11,0.27,0.17,0.4c0.45,1.02,0.78,2.1,0.98,3.21c0.32,1.71,0.25,3.47,0.03,5.18
				c-0.1,0.75-0.2,1.45-0.43,2.17c-0.36,1.14-0.8,2.33-1.43,3.35c-0.44,0.71-0.93,1.39-1.46,2.04c-0.88,1.1-1.82,2.16-2.62,3.32
				c-0.75,1.09-1.25,1.88-0.78,2.06c0.27,0.1,3.29-1.7,4.21-2.16c0.74-0.37,3.34-1.79,3.58-1.9c0.39-0.17,1.47-0.67,1.53-0.15
				C77.53,66.47,77.8,68.97,76.2,72.42z"/>
		</g>
		<path class="st0" d="M70.98,52.29c0-0.01,0-0.03,0.01-0.05c0,0,0,0.01,0,0.01L70.98,52.29z"/>
		<path class="st0" d="M77.35,51.29C77.35,51.29,77.34,51.29,77.35,51.29C77.34,51.29,77.34,51.29,77.35,51.29z M83.7,62.6
			l0.01-0.02C83.71,62.5,83.7,62.49,83.7,62.6z"/>
		<path class="st0" d="M84.99,69.63c0.08-3.5-0.31-7.03-1.02-10.46c-1.31-6.33-3.57-11.99-5.89-18.02c-0.21-0.27-0.3-0.01-0.31,0.02
			c-0.02,0.06-0.23,0.9-0.34,1.36c-0.14,0.59-0.36,1.73-0.39,1.9c-0.09,0.57-0.21,0.65-0.18,2.09c0.09,4.11-0.02,10.88-0.03,16.48
			c0.06,0.39,0.29,0.18,0.36-0.34c0.62-4.71,0.55-9.87,0.47-14.57c-0.32-0.39,0.55,1.76,0.87,2.35c0.53,0.98,1.02,1.99,1.48,3
			c0.92,2.04,1.71,4.13,2.36,6.27c1.23,4.08,2.11,8.29,1.78,12.56c-0.05,0.61-0.24,1.31-0.24,1.33c0.07,0.85-2.46,10.27-11.39,14.53
			c-1.7,0.81-3.63,1.44-5.39,2.09c-2.15,0.8-8.29,2.11-9.14,2.33c-0.98,0.25-1.72,0.93-0.01,0.93c0.49,0,2.79,0.03,3.74,0
			c2.47-0.09,5.39-0.17,5.87-0.19c5.1-0.25,8.19-1.52,10.36-3.32c1.68-1.39,3.71-4.98,4.37-6.93C83.8,78.71,84.89,74.13,84.99,69.63
			z M83.72,62.58L83.7,62.6C83.7,62.49,83.71,62.5,83.72,62.58z"/>
		<path class="st0" d="M83.46,66.37c0,0,0,0.01,0,0.01L83.46,66.37L83.46,66.37z"/>
		<path class="st0" d="M83.72,62.58L83.7,62.6C83.7,62.49,83.71,62.5,83.72,62.58z"/>
	</g>
	<path class="st0" d="M62.77,63.71c-2.43,2.3-3.28,3.32-9.87,5.92c-4.96,1.95-2.87,1.4,0.56,0.45c1.89-0.52,4.19-0.86,5.92-1.68
		c3.04-1.43,5.36-5.94,6.43-8.2c0.47-0.99,0.07-0.58-0.17-0.36C65.65,59.84,64.52,62.05,62.77,63.71z"/>
	<path class="st0" d="M56.12,33.42c-1.51,1.05-2.05,1.54-5.85,2.42c-2.86,0.66-1.67,0.53,0.27,0.29C51.61,36,52.89,36,53.9,35.7
		c1.77-0.53,3.4-2.8,4.16-3.94c0.34-0.5,0.08-0.31-0.06-0.21C58,31.54,57.21,32.66,56.12,33.42z"/>
	<path class="st0" d="M47.16,56.56c-1.08,0.96-1.46,1.39-4.33,2.43c-2.16,0.78-1.25,0.57,0.23,0.2c0.82-0.2,1.82-0.32,2.58-0.65
		c1.33-0.58,2.39-2.5,2.88-3.46c0.22-0.42,0.04-0.25-0.07-0.16C48.45,54.92,47.94,55.87,47.16,56.56z"/>
	<g>
		<path class="st0" d="M56.9,57.27c0.34-0.01,0.68,0.29,1.01,0.89c0.05,0.11,0.08,0.2,0.08,0.28l0,0.04c0,0.17-0.06,0.42-0.19,0.75
			c-0.08,0.16-0.16,0.24-0.24,0.24l-0.01,0c-0.06,0-0.19-0.12-0.39-0.37c-0.17-0.2-0.35-0.29-0.54-0.29l-0.02,0
			c-0.43,0.01-0.82,1.16-1.17,3.44c-0.13,0.68-0.26,1.14-0.38,1.38c-0.04,0.12-0.13,0.26-0.28,0.42c-0.05,0.03-0.08,0.05-0.11,0.05
			l-0.02,0c-0.08,0-0.12-0.14-0.12-0.43c0-0.17-0.11-0.55-0.32-1.15c-0.61-1.54-1.02-2.3-1.22-2.3l-0.04,0
			c-0.1,0-0.16,0.04-0.18,0.11c-0.04,0.07-0.14,0.11-0.28,0.11c-0.23,0.01-0.56-0.19-0.99-0.58c-0.15-0.16-0.22-0.29-0.22-0.39
			c0-0.04,0.1-0.23,0.3-0.59c0.17-0.33,0.33-0.6,0.48-0.8c0.02-0.02,0.04-0.03,0.05-0.03l0.02,0c0.79-0.02,1.49,0.62,2.12,1.91
			c0.16,0.33,0.31,0.79,0.46,1.36l0.15,0.75l0.02,0.01c0.07-0.17,0.1-0.31,0.1-0.4c0.13-0.8,0.3-1.61,0.5-2.43
			c0.08-0.35,0.14-0.57,0.2-0.67C56.03,57.71,56.44,57.28,56.9,57.27z"/>
	</g>
	<g>
		<path class="st0" d="M65.04,31.77c0.19,0.02,0.36,0.2,0.5,0.55c0.02,0.06,0.03,0.12,0.03,0.16l0,0.02
			c-0.01,0.09-0.06,0.23-0.15,0.4c-0.05,0.08-0.1,0.12-0.15,0.12l-0.01,0c-0.03,0-0.1-0.08-0.19-0.23C65,32.68,64.9,32.61,64.8,32.6
			l-0.01,0c-0.24-0.02-0.52,0.59-0.85,1.83c-0.11,0.37-0.21,0.61-0.29,0.74c-0.03,0.07-0.09,0.14-0.18,0.21
			c-0.03,0.02-0.05,0.02-0.06,0.02l-0.01,0c-0.04,0-0.06-0.09-0.04-0.25c0.01-0.09-0.03-0.31-0.11-0.65
			c-0.24-0.89-0.42-1.33-0.53-1.34l-0.02,0c-0.06,0-0.09,0.01-0.11,0.05c-0.03,0.04-0.08,0.05-0.16,0.05
			c-0.13-0.01-0.3-0.14-0.51-0.38c-0.07-0.1-0.1-0.17-0.1-0.23c0-0.02,0.07-0.12,0.2-0.31c0.11-0.17,0.22-0.31,0.32-0.41
			c0.01-0.01,0.02-0.01,0.03-0.01l0.01,0c0.44,0.04,0.79,0.43,1.05,1.18c0.07,0.19,0.12,0.45,0.17,0.78l0.04,0.42l0.01,0.01
			c0.05-0.09,0.07-0.16,0.08-0.22c0.12-0.43,0.26-0.87,0.42-1.31c0.06-0.19,0.11-0.31,0.15-0.36
			C64.53,31.96,64.78,31.75,65.04,31.77z"/>
	</g>
	<g>
		<path class="st0" d="M26.93,80.45c0.18,0,0.36,0.15,0.54,0.48c0.03,0.06,0.04,0.11,0.04,0.15l0,0.02c0,0.09-0.03,0.22-0.1,0.4
			c-0.04,0.08-0.08,0.13-0.13,0.13l-0.01,0c-0.03,0-0.1-0.07-0.21-0.2c-0.09-0.11-0.19-0.16-0.29-0.15l-0.01,0
			c-0.23,0.01-0.44,0.62-0.62,1.84c-0.07,0.36-0.14,0.61-0.2,0.73c-0.02,0.07-0.07,0.14-0.15,0.22c-0.02,0.02-0.04,0.03-0.06,0.03
			l-0.01,0c-0.04,0-0.06-0.08-0.07-0.23c0-0.09-0.06-0.29-0.17-0.61c-0.33-0.82-0.54-1.23-0.65-1.23l-0.02,0
			c-0.05,0-0.09,0.02-0.1,0.06c-0.02,0.04-0.07,0.06-0.15,0.06c-0.12,0-0.3-0.1-0.53-0.31c-0.08-0.08-0.12-0.15-0.12-0.21
			c0-0.02,0.05-0.12,0.16-0.32c0.09-0.18,0.18-0.32,0.26-0.43c0.01-0.01,0.02-0.01,0.03-0.02l0.01,0c0.42-0.01,0.8,0.33,1.13,1.02
			c0.08,0.18,0.17,0.42,0.24,0.73l0.08,0.4l0.01,0.01c0.04-0.09,0.05-0.16,0.05-0.21c0.07-0.43,0.16-0.86,0.27-1.3
			c0.04-0.19,0.08-0.31,0.1-0.36C26.46,80.69,26.68,80.46,26.93,80.45z"/>
	</g>
	<g>
		<path class="st0" d="M33.16,36.83c0.01-0.05-0.19-0.27-0.6-0.65l0-0.06c0.18-0.55,0.31-1.03,0.38-1.46c0-0.01,0-0.02,0-0.02
			c0-0.66-0.19-1.01-0.56-1.05c-0.07-0.01-0.14,0-0.2,0.03c-1.02,0.47-1.56,1.06-1.63,1.78l-0.03,0.35c-0.02,0.27,0.27,0.7,0.9,1.28
			c0,0.05-0.09,0.11-0.12,0.14c-0.12,0.1-0.24,0.2-0.36,0.29c-0.42,0.33-0.85,0.64-1.31,0.91c-1.43,0.84-3.03,1.57-4.66,2.14
			c-0.14,0.05-0.88,0.33-1.02,0.4c-0.15,0.08-0.93,0.71-0.54,0.61c1.35-0.36,4.03-1.11,5.3-1.72c1.22-0.59,2.3-1.45,3.25-2.42
			l0.05,0c0.01,0,0.03,0.02,0.04,0.03c0.03,0.03,0.06,0.05,0.09,0.08c0.13,0.12,0.25,0.25,0.37,0.38c0.04,0.04,0.11,0.02,0.15-0.01
			c0.03-0.02,0.06-0.05,0.08-0.08c0.08-0.1,0.14-0.22,0.2-0.34c0.09-0.18,0.16-0.38,0.23-0.57L33.16,36.83z M32.04,35.83
			c-0.48-0.34-0.71-0.56-0.7-0.67c0.02-0.24,0.2-0.37,0.54-0.4c0.12,0.01,0.2,0.09,0.27,0.24c0.01,0.02,0.01,0.04,0.01,0.06
			l-0.06,0.67L32.04,35.83z"/>
	</g>
	<g>
		<path class="st0" d="M26.85,58.25c0-0.02-0.1-0.1-0.3-0.24l0-0.03c0.04-0.25,0.07-0.47,0.07-0.65c0,0,0-0.01,0-0.01
			c-0.04-0.29-0.15-0.42-0.31-0.41c-0.03,0-0.06,0.01-0.08,0.03c-0.41,0.27-0.61,0.56-0.59,0.87l0.01,0.15
			c0.01,0.12,0.16,0.28,0.47,0.5c0,0.02-0.03,0.05-0.04,0.07c-0.04,0.05-0.09,0.1-0.14,0.15c-0.16,0.17-0.32,0.33-0.51,0.48
			c-0.56,0.45-1.21,0.87-1.87,1.22c-0.06,0.03-0.36,0.2-0.41,0.24c-0.06,0.05-0.35,0.37-0.2,0.3c0.56-0.24,1.67-0.74,2.17-1.08
			c0.49-0.33,0.9-0.77,1.25-1.25l0.02,0c0.01,0,0.01,0.01,0.02,0.01c0.01,0.01,0.03,0.02,0.04,0.03c0.06,0.04,0.12,0.09,0.18,0.14
			c0.02,0.01,0.05,0,0.07-0.01c0.01-0.01,0.02-0.03,0.03-0.04c0.03-0.05,0.05-0.1,0.06-0.16c0.02-0.08,0.04-0.17,0.06-0.26
			L26.85,58.25z M26.31,57.89c-0.23-0.11-0.34-0.2-0.35-0.24c-0.01-0.1,0.06-0.17,0.21-0.21c0.05,0,0.09,0.03,0.13,0.09
			c0,0.01,0.01,0.02,0.01,0.03l0.02,0.29L26.31,57.89z"/>
	</g>
	<g>
		<path class="st0" d="M37.06,62.97c2.29,0.17,3.42,0.5,3.38,0.98c-1.03,1.71-2.14,2.74-3.33,3.08c-1.34,0.28-2.27,0.45-2.77,0.52
			l0-0.06c0.45-0.37,1.78-1.03,3.99-1.98l0.01-0.1c0.01-0.17-0.57-0.31-1.75-0.4l-2.11-0.16c-0.11-0.01-0.16-0.07-0.15-0.17
			c0.61-1.23,1.41-1.81,2.42-1.74L37.06,62.97z"/>
	</g>
	<g>
		<path class="st0" d="M45.29,89.29c1.24-0.06,1.87,0.04,1.88,0.3c-0.44,0.99-0.97,1.61-1.58,1.88c-0.7,0.24-1.19,0.39-1.45,0.46
			l0-0.03c0.21-0.23,0.88-0.67,2.01-1.33l0-0.05c0-0.09-0.33-0.13-0.96-0.1l-1.14,0.05c-0.06,0-0.09-0.02-0.09-0.08
			c0.24-0.7,0.64-1.07,1.18-1.09L45.29,89.29z"/>
	</g>
	<g>
		<path class="st0" d="M19.69,70.58c0.86-0.04,1.3,0.03,1.31,0.21c-0.31,0.69-0.67,1.12-1.1,1.31c-0.49,0.17-0.83,0.27-1.01,0.32
			l0-0.02c0.15-0.16,0.62-0.47,1.4-0.92l0-0.04c0-0.07-0.23-0.09-0.67-0.07l-0.8,0.04c-0.04,0-0.06-0.02-0.06-0.06
			c0.17-0.49,0.44-0.74,0.82-0.76L19.69,70.58z"/>
	</g>
	<g>
		<path class="st0" d="M67.7,45.91c1.15,0.09,1.72,0.25,1.7,0.49c-0.52,0.86-1.08,1.38-1.67,1.55c-0.67,0.14-1.14,0.23-1.39,0.26
			l0-0.03c0.22-0.19,0.89-0.52,2.01-1l0-0.05c0.01-0.09-0.29-0.15-0.88-0.2l-1.06-0.08c-0.05,0-0.08-0.03-0.07-0.09
			c0.3-0.62,0.71-0.91,1.21-0.87L67.7,45.91z"/>
	</g>
	<g>
		<path class="st0" d="M58.85,86.61l-0.04,0c-0.21,0.22-0.31,0.4-0.31,0.54l0,0.07c0.05,0.23,0.08,0.36,0.08,0.39l0,0.04l-0.14,0
			c-0.32,0.01-0.52-0.03-0.6-0.09c0.07-0.25,0.1-0.41,0.1-0.46l0-0.04c0-0.04-0.02-0.06-0.07-0.07l-0.07,0
			c-0.02,0-0.07,0.05-0.17,0.14c-0.25,0.62-0.57,0.93-0.97,0.94l-0.96-0.16c-0.78,0.02-1.57,0.48-2.38,1.39
			c-0.75,0.98-1.4,1.68-1.97,2.09c-0.6,0.38-0.93,0.61-0.98,0.69l0,0.07c0.3-0.07,0.46-0.12,0.46-0.15
			c0.45-0.01,1.04-0.42,1.78-1.24c1.09-1.22,2.03-1.84,2.83-1.86c0.08,0,0.39,0.05,0.92,0.16c0.37-0.01,0.76-0.23,1.15-0.66
			c0.4,0.13,0.67,0.2,0.82,0.2c0.39-0.01,0.63-0.4,0.72-1.18l-0.01-0.49C58.98,86.72,58.92,86.61,58.85,86.61z"/>
	</g>
	<path class="st0" d="M73.8,80.24c0.08-0.06,0.16-0.11,0.26-0.15c0.16-0.06,0.32-0.12,0.48-0.18c0.16-0.06,0.37-0.16,0.54-0.09
		c0.12,0.05,0.19,0.18,0.22,0.31c0.07,0.28,0.02,0.58-0.04,0.86c-0.03,0.14-0.07,0.28-0.11,0.42c-0.11,0.35-0.24,0.69-0.39,1.02
		c-0.05,0.11-0.13,0.21-0.14,0.34c-0.02,0.15,0.04,0.3,0.1,0.44c0.02,0.04,0.04,0.07,0.08,0.09c0.08,0.05,0.2,0.02,0.29,0.01
		c0.11-0.01,0.22-0.02,0.32-0.05c0.25-0.06,0.45-0.22,0.66-0.36c0.24-0.15,0.48-0.3,0.72-0.44c0.15-0.09,0.31-0.22,0.48-0.28
		c0,0,0.06,0.17,0.06,0.17c0.02,0.04-0.07,0.2-0.09,0.24c-0.04,0.08-0.08,0.16-0.12,0.23c-0.1,0.16-0.21,0.3-0.34,0.43
		c-0.31,0.31-0.69,0.52-1.09,0.7c-0.15,0.07-0.28,0.1-0.45,0.09c-0.29-0.02-0.68-0.05-0.87-0.31c-0.3-0.4-0.19-1.06-0.08-1.51
		c0.09-0.38,0.22-0.75,0.38-1.11c0.06-0.13,0.12-0.27,0.09-0.42c-0.01-0.04-0.02-0.05-0.05-0.05c-0.04,0-0.08,0.01-0.12,0.01
		c-0.09,0.01-0.17,0.02-0.26,0.03c-0.21,0.12-0.31,0.18-0.46,0.3c-0.15,0.12-0.27,0.27-0.42,0.39c-0.01,0-0.01,0.01-0.02,0.01
		c-0.01,0-0.01-0.01-0.02-0.01c-0.08-0.09-0.1-0.22-0.07-0.34c0.03-0.12,0.09-0.22,0.15-0.33c0.07-0.12,0.14-0.24,0.22-0.35
		C73.73,80.3,73.76,80.27,73.8,80.24z"/>
	<g>
		<path class="st0" d="M63.99,55.36c0.23-0.29,0.39-0.47,0.48-0.54l0,0c0.01,0.02,0.04,0.03,0.08,0.04c0.01,0.02,0.01,0.1,0.02,0.25
			c0,0.19,0.06,0.37,0.2,0.56c0.04,0.06,0.1,0.12,0.17,0.18c0.19,0.12,0.4,0.1,0.62-0.06c0.31-0.22,0.63-1.04,0.96-2.46
			c0.14-0.63,0.23-0.96,0.27-0.99l0.02-0.01l0.01,0.01c0.03,0.07,0.04,0.33,0.03,0.8c0,0.21-0.02,0.46-0.06,0.77
			c-0.06,0.37-0.12,0.64-0.17,0.8c-0.35,1.13-0.78,1.88-1.31,2.26c-0.19,0.13-0.36,0.22-0.53,0.27c-0.34,0.09-0.63-0.02-0.86-0.34
			C63.58,56.41,63.6,55.9,63.99,55.36z"/>
	</g>
	<g>
		<path class="st0" d="M80.63,71.1c-0.38,0.1-0.67,0-0.88-0.29c-0.1-0.14-0.17-0.32-0.23-0.54c-0.16-0.63-0.01-1.48,0.45-2.57
			c0.06-0.16,0.19-0.4,0.39-0.72c0.17-0.26,0.32-0.47,0.45-0.63c0.29-0.36,0.47-0.56,0.54-0.59l0.02,0l0.01,0.02
			c0.01,0.06-0.13,0.37-0.43,0.93c-0.66,1.29-0.94,2.13-0.85,2.5c0.07,0.27,0.22,0.42,0.44,0.45c0.09,0,0.17,0,0.25-0.02
			c0.23-0.06,0.4-0.16,0.51-0.3c0.1-0.11,0.16-0.17,0.18-0.18c0.04,0.02,0.07,0.02,0.09,0.02l0,0c0.03,0.11,0.03,0.35,0.02,0.72
			C81.52,70.56,81.2,70.96,80.63,71.1z"/>
	</g>
	<g>
		<path class="st0" d="M24.34,74.1c-0.29,0.03-0.5-0.08-0.62-0.32c-0.05-0.12-0.09-0.26-0.1-0.43c-0.04-0.49,0.17-1.1,0.65-1.86
			c0.07-0.11,0.19-0.27,0.38-0.49c0.16-0.17,0.29-0.31,0.41-0.41c0.26-0.23,0.42-0.36,0.47-0.37l0.01,0l0,0.02
			c0,0.04-0.14,0.26-0.43,0.64c-0.65,0.88-0.96,1.46-0.94,1.75c0.02,0.21,0.11,0.34,0.27,0.39c0.07,0.01,0.13,0.02,0.19,0.01
			c0.17-0.02,0.31-0.07,0.42-0.16c0.09-0.07,0.14-0.1,0.15-0.11c0.03,0.02,0.05,0.03,0.06,0.02l0,0c0.01,0.08-0.02,0.26-0.07,0.54
			C25.06,73.8,24.78,74.06,24.34,74.1z"/>
	</g>
	<g>
		<path class="st0" d="M42.98,50.22c0.33-0.03,0.57,0.28,0.71,0.93l0.01,0.08c0.02,0.27-0.07,0.53-0.27,0.78l-0.21,0.02
			c-0.17,0.01-0.49-0.16-0.96-0.52l-0.06,0c-0.06,0.54-0.42,1.12-1.08,1.75c-0.67,0.68-1.83,1.24-3.49,1.65
			c0,0.05-0.2,0.11-0.62,0.18L36.99,55c3.18-1.59,4.8-2.73,4.88-3.41c0.2-0.5,0.38-0.75,0.53-0.77
			C42.56,50.44,42.75,50.23,42.98,50.22z M42.67,51.11c0.33,0.2,0.56,0.3,0.7,0.32l0-0.03c-0.02-0.19-0.14-0.35-0.37-0.48l-0.06,0
			C42.8,50.92,42.71,50.99,42.67,51.11z"/>
	</g>
	<g>
		<path class="st0" d="M50.23,41.11c0.12,0.68,0.25,1.15,0.15,2.03c-0.03,0.27,0.13-0.19,0.14-0.22c0.09-0.28,0.2-0.57,0.22-0.87
			c0.06-0.74-0.08-1.45-0.15-2.17c-0.01-0.08-0.07,0.05-0.07,0.05c-0.06,0.08-0.1,0.28-0.13,0.37
			C50.33,40.54,50.21,40.86,50.23,41.11L50.23,41.11z"/>
	</g>
	<g>
		<path class="st0" d="M73.5,40.89c0.12,0.68,0.25,1.15,0.15,2.03c-0.03,0.27,0.13-0.19,0.14-0.22c0.09-0.28,0.2-0.57,0.22-0.87
			c0.06-0.74-0.08-1.45-0.15-2.17c-0.01-0.08-0.07,0.05-0.07,0.05c-0.06,0.08-0.1,0.28-0.13,0.37
			C73.59,40.31,73.47,40.63,73.5,40.89L73.5,40.89z"/>
	</g>
	<g>
		<path class="st0" d="M20.27,48.93c0.08,0.46,0.17,0.79,0.1,1.38c-0.02,0.18,0.09-0.13,0.09-0.15c0.06-0.19,0.13-0.39,0.15-0.59
			c0.04-0.5-0.06-0.99-0.1-1.48c-0.01-0.06-0.05,0.03-0.05,0.03c-0.04,0.05-0.07,0.19-0.09,0.26
			C20.33,48.54,20.26,48.76,20.27,48.93L20.27,48.93z"/>
	</g>
	<g>
		<path class="st0" d="M41.36,34.53c0.13,0.73,0.27,1.24,0.16,2.19c-0.03,0.29,0.14-0.2,0.15-0.24c0.1-0.3,0.21-0.61,0.24-0.94
			c0.07-0.79-0.09-1.56-0.16-2.34c-0.01-0.09-0.07,0.05-0.07,0.05c-0.06,0.08-0.11,0.31-0.14,0.4
			C41.46,33.91,41.34,34.26,41.36,34.53L41.36,34.53z"/>
	</g>
	<path class="st0" d="M21.89,37.61c0.55-1.2,1.28-2.32,2.08-3.38c0.8-1.06,1.69-2.06,2.64-3c1.91-1.87,4.08-3.48,6.4-4.82
		c2.33-1.34,4.81-2.39,7.37-3.2c1.28-0.4,2.58-0.73,3.89-1.01c1.31-0.28,2.63-0.49,3.97-0.65c1.38-0.16,2.75-0.15,4.11-0.03
		c1.36,0.13,2.7,0.36,4.01,0.7c1.31,0.34,2.6,0.76,3.85,1.26c0.62,0.25,1.24,0.52,1.85,0.81c0.61,0.29,1.2,0.6,1.79,0.93
		c2.34,1.31,4.52,2.91,6.44,4.77c1.91,1.86,3.59,3.96,4.87,6.27c-3.18-4.21-7.33-7.53-11.95-9.83c-2.31-1.14-4.74-2.04-7.23-2.61
		c-1.25-0.28-2.51-0.49-3.77-0.59c-1.26-0.1-2.53-0.1-3.77,0.04c-1.27,0.15-2.56,0.35-3.82,0.6c-1.27,0.25-2.52,0.56-3.76,0.91
		c-1.24,0.36-2.46,0.77-3.67,1.24c-1.2,0.47-2.38,1-3.53,1.58c-2.3,1.17-4.48,2.59-6.48,4.25c-1.01,0.82-1.95,1.72-2.84,2.67
		c-0.45,0.48-0.88,0.97-1.29,1.48C22.64,36.53,22.24,37.06,21.89,37.61z"/>
	<g>
		<path class="st0" d="M46.49,23.13c0.06-0.03,0.13-0.05,0.21-0.06c1.64-0.18,3.29-0.25,4.93,0.03c0.31-0.39,0.53-0.86,0.61-1.37
			c0.25-1.75-0.8-3.47-2.59-3.82c-1.68-0.32-3.56,0.85-3.82,2.59C45.69,21.46,45.94,22.41,46.49,23.13z"/>
	</g>
	<g>
		<path class="st0" d="M48.75,17.42c1.92,0,1.93-2.99,0-2.99C46.83,14.42,46.83,17.42,48.75,17.42L48.75,17.42z"/>
	</g>
	<path class="st0" d="M45.58,12.39c0.09,0.12,0.3,0.3,0.3,0.3c0.6,0.66,1.54,1.1,2.62,1.09c2.97-0.02,3.65-2.97,3.2-2.59
		c-0.74,0.61-0.89,0.68-1.64,0.93c-0.83,0.28-1.79,0.11-2.67-0.63c-0.18-0.15-0.49-0.63-0.49-0.63c-0.4-1.02-0.27-1.96,0.23-2.65
		c0.46-0.64,0.57-0.76,1.38-1.29c0.5-0.32-2.52-0.55-3.42,2.29C44.7,10.42,44.95,11.6,45.58,12.39z"/>
</g>
</svg>
